# xmcd
#
# Track frame offsets:
#	150
#	14427
#	30965
#	44222
#	56217
#	71147
#	86812
#	104355
#	124762
#	140982
#	165002
#	178840
#	195510
#	213257
#	232282
#	252750
#	275175
#	303357
#
# Disc length: 4259 seconds
#
# Revision: 5
# Processed by: cddbd v1.5PL3 Copyright (c) Steve Scherf et al.
# Submitted via: CDex 1.50Beta5
#
DISCID=1210a112
DTITLE=チューリップ - BIG ARTIST BEST COLLECTION
DYEAR=1989
DGENRE=Pop
TTITLE0=魔法の黄色い靴
TTITLE1=心の旅
TTITLE2=夢中さ君に
TTITLE3=銀の指環
TTITLE4=青春の影
TTITLE5=ぼくがつくった愛のうた
TTITLE6=私のアイドル
TTITLE7=サボテンの花
TTITLE8=悲しきレイン・トレイン
TTITLE9=Shooting Star
TTITLE10=風見鳥
TTITLE11=風のメロディー
TTITLE12=ブルー・スカイ
TTITLE13=博多っ子純情
TTITLE14=虹とスニーカーの頃
TTITLE15=ふたりがつくった風景
TTITLE16=生まれる星
TTITLE17=I dream
EXTD=
EXTT0=
EXTT1=
EXTT2=
EXTT3=
EXTT4=
EXTT5=
EXTT6=
EXTT7=
EXTT8=
EXTT9=
EXTT10=
EXTT11=
EXTT12=
EXTT13=
EXTT14=
EXTT15=
EXTT16=
EXTT17=
PLAYORDER=
